<?xml version="1.0" encoding="UTF-8"?>
<svg width="1318px" height="366px" viewBox="0 0 1318 366" version="1.1" xmlns="http://www.w3.org/2000/svg" xmlns:xlink="http://www.w3.org/1999/xlink">
    <g id="Icons" stroke="none" stroke-width="1" fill="none" fill-rule="evenodd">
        <g id="Light" transform="translate(-335.000000, -316.000000)" fill="#1972F5">
            <g id="Logo" transform="translate(333.000000, 314.000000)">
                <path d="M687.68,272.32 C721.88,272.32 742.04,257.56 754.28,241.36 L729.44,217.96 C719.72,231.64 706.4,238.84 689.48,238.84 C658.16,238.84 636.92,214.72 636.92,180.88 C636.92,147.04 658.16,123.28 689.48,123.28 C706.4,123.28 719.72,129.76 729.44,143.44 L754.28,120.76 C742.04,104.2 721.88,89.8 687.68,89.8 C635.12,89.8 598.04,128.32 598.04,180.88 C598.04,233.44 635.12,272.32 687.68,272.32 Z M820.56,268 L820.56,149.56 C828.12,136.96 849.36,126.16 865.56,126.16 C870.24,126.16 873.84,126.52 877.08,127.24 L877.08,89.8 C854.76,89.8 833.88,102.76 820.56,119.32 L820.56,94.12 L782.76,94.12 L782.76,268 L820.56,268 Z M921.76,72.88 C934.72,72.88 945.16,62.44 945.16,49.48 C945.16,36.52 934.72,26.08 921.76,26.08 C908.8,26.08 898.36,36.52 898.36,49.48 C898.36,62.44 908.8,72.88 921.76,72.88 Z M940.48,268 L940.48,94.12 L902.68,94.12 L902.68,268 L940.48,268 Z M1044.2,272.32 C1091,272.32 1116.56,248.92 1116.56,217.96 C1116.56,148.84 1011.44,171.88 1011.44,141.28 C1011.44,129.04 1023.68,119.68 1043.48,119.68 C1065.44,119.68 1084.52,129.04 1094.96,140.56 L1110.8,113.92 C1095.32,100.24 1073,89.8 1043.48,89.8 C999.56,89.8 975.08,113.92 975.08,142.36 C975.08,209.32 1080.2,184.84 1080.2,219.04 C1080.2,232.72 1068.32,242.08 1045.64,242.08 C1023.32,242.08 999.2,230.56 986.96,217.96 L969.68,244.96 C987.68,262.6 1014.32,272.32 1044.2,272.32 Z M1242.96,272.32 C1221,272.32 1201.56,262.24 1187.16,243.88 L1187.16,334.24 L1149.36,334.24 L1149.36,94.12 L1187.16,94.12 L1187.16,117.88 C1200.12,100.6 1220.28,89.8 1242.96,89.8 C1287.96,89.8 1320,123.64 1320,180.88 C1320,238.12 1287.96,272.32 1242.96,272.32 Z M1231.8,238.84 C1261.68,238.84 1281.12,214.72 1281.12,180.88 C1281.12,147.04 1261.68,123.28 1231.8,123.28 C1214.16,123.28 1195.8,133.36 1187.16,146.32 L1187.16,215.08 C1195.44,228.04 1214.16,238.84 1231.8,238.84 Z" id="crisp"></path>
                <path d="M178.305813,292.120898 L26.53276,309.540545 L1.59476316,50.4415132 L427.656766,1.54054454 L452.594763,260.639576 L305.147211,277.562766 L249.944208,367.523101 L178.305813,292.120898 Z" id="Border" transform="translate(227.094763, 184.531823) rotate(0.250000) translate(-227.094763, -184.531823) "></path>
            </g>
        </g>
    </g>
</svg>
