<svg  viewBox="0 0 710 152" fill="none" xmlns="http://www.w3.org/2000/svg">
<g clip-path="url(#clip0_2653_178)">
<path d="M689.736 49C676.777 49 668.025 55.0198 668.025 64.0373C668.025 73.073 677.155 76.7166 685.171 79.9645C691.361 82.4771 697.863 85.1372 697.863 89.4326C697.863 90.7465 697.463 91.7399 696.75 92.5511C695.28 94.3157 692.208 95.1262 687.398 94.89C682.677 94.6629 677.333 93.0861 671.365 90.324L668.916 89.2097V100.348L670.475 100.794L671.477 101.016C674.461 101.734 680.161 103.021 685.951 103.021C701.004 103.021 710 97.0686 710 87.0937C710 77.845 700.715 74.1022 692.521 70.8325C686.508 68.431 680.273 65.967 680.273 62.0323C680.273 60.8787 680.206 57.4656 687.956 57.4656C693.745 57.4656 699.468 59.7609 702.541 61.0298L705.436 62.2552V51.0057L702.541 50.4489C699.645 49.8872 694.769 49 689.736 49ZM181.369 50.7821V51.3396C181.77 56.7478 182.037 70.3137 182.037 75.286C182.037 79.8218 181.97 94.9737 181.257 101.573V102.129H205.084C216.752 102.129 229.133 98.4936 229.133 88.0948C229.133 81.573 224.479 76.7202 215.661 74.0607C222.118 72.3419 226.572 67.8771 226.572 62.7002C226.572 54.2353 216.774 50.974 207.644 50.7821H181.369ZM239.154 50.7821V51.3396C239.554 56.7478 239.821 70.1808 239.821 75.1743C239.821 79.7009 239.754 94.9835 239.042 101.573V102.129H250.955V101.684C250.287 89.1022 250.287 76.4762 250.287 64.2601C250.687 65.6907 251.351 67.0883 253.182 69.8293C253.36 70.145 273.935 100.129 275.005 101.907V102.129H284.69L284.579 101.573C283.912 94.9695 283.912 79.7016 283.912 75.1743C283.912 70.1801 284.223 56.726 284.579 51.3396V50.7821H272.554L273.111 63.7026C273.333 70.1541 273.445 76.7124 273.89 83.0831C273.088 81.1322 272.465 80.058 268.991 74.9521C268.902 74.7693 256.922 56.1467 252.736 50.8932L252.624 50.7821H239.154ZM298.051 50.7821L298.162 51.2285C298.562 56.655 298.83 70.185 298.83 75.175C298.83 79.7058 298.762 94.9793 298.051 101.573L297.939 102.13H312.302L312.19 101.573C311.7 96.8725 311.567 87.9176 311.522 80.967C312.102 80.9979 314.083 81.0788 314.083 81.0788L316.088 81.1899C334.927 81.1899 344.034 76.1332 344.034 65.7076C344.034 53.8261 331.275 51.0233 320.541 50.7828H298.051V50.7821ZM371.31 50.7821V51.2285C371.711 56.655 372.09 70.185 372.09 75.175C372.09 79.7058 371.911 94.9793 371.199 101.573V102.13H385.45V101.573C384.96 96.8725 384.76 87.9176 384.671 80.967C385.295 80.9979 387.343 81.0788 387.343 81.0788L389.347 81.1899C408.186 81.1899 417.293 76.1332 417.293 65.7076C417.293 53.8261 404.423 51.0233 393.69 50.7828H371.31V50.7821ZM436.221 50.7821L436.109 51.1167C433.481 58.4146 416.402 95.7364 413.73 101.461L413.396 102.129H425.643L425.754 101.907C426.823 98.4057 428.115 94.4042 429.763 90.1004L439.894 89.8776L448.244 89.9887C448.244 89.9887 449.669 90.1004 450.026 90.1004C452.253 95.6387 453.878 99.8399 454.591 101.907L454.702 102.129H468.842L446.018 50.7821H436.221ZM474.521 50.7821V51.3396C474.921 56.7478 475.188 70.1808 475.188 75.1743C475.188 79.6974 475.166 94.9835 474.41 101.573V102.129H488.66V101.573C487.948 94.961 487.881 79.6974 487.881 75.1743C487.881 71.5925 488.059 63.6091 488.326 57.242C489.484 57.0951 491.043 57.0417 492.113 57.0199C498.793 56.8947 503.536 58.2586 505.807 61.0291C506.831 62.2903 507.365 63.8854 507.365 65.7069C507.365 71.6332 501.732 74.5648 496.566 74.8403C494.874 74.9296 493.56 74.7293 493.56 74.7293L492.558 74.5071L493.226 75.5096C498.214 82.9185 505.829 95.7631 509.036 101.907L509.147 102.129H524.4L523.955 101.35C523.42 100.53 513.377 85.8009 509.147 79.5188C509.147 79.5188 509.013 79.3628 508.925 79.1849C516.674 76.827 520.504 72.4431 520.504 65.7069C520.504 53.8296 507.634 51.0099 496.9 50.7821H474.521ZM531.08 50.7821V51.2285C531.481 56.655 531.749 70.2026 531.749 75.175C531.749 79.6981 531.681 94.9702 530.969 101.573V102.13H545.221L545.109 101.573C544.396 94.9702 544.441 79.6981 544.441 75.175C544.441 70.1991 544.753 56.6417 545.109 51.2285V50.7821H531.08ZM558.024 50.7821V51.3396C558.425 56.7394 558.692 70.3137 558.692 75.286C558.692 79.8218 558.736 94.9737 558.024 101.573L557.913 102.129H581.85C593.474 102.129 605.9 98.4936 605.9 88.0948C605.9 81.573 601.179 76.7202 592.317 74.0607C598.818 72.3419 603.227 67.8771 603.227 62.7002C603.227 54.2353 593.43 50.974 584.3 50.7821H558.024ZM631.396 50.7821L631.284 51.005C628.479 58.7661 610.42 98.2166 608.905 101.46L608.571 102.128H620.819L620.93 101.794C621.998 98.301 623.29 94.3136 624.938 89.9873C625.338 89.9788 635.069 89.8762 635.069 89.8762L643.42 89.9873C643.42 89.9873 644.845 89.9788 645.201 89.9873C647.428 95.5122 649.053 99.7042 649.766 101.794L649.877 102.128H664.017L641.193 50.7814L631.396 50.7821ZM197.179 56.5742C198.003 56.5144 198.982 56.5671 199.851 56.5742C209.782 56.6093 213.434 58.5967 213.434 64.0366C213.434 65.4932 213.056 66.7495 212.21 67.8236C210.294 70.1 206.42 71.2859 201.743 71.0539H201.521L198.738 78.2942H201.521C206.999 78.1374 211.764 79.8703 214.214 82.8609C215.371 84.2465 215.884 85.8402 215.884 87.5387C215.884 93.2499 210.874 96.1146 201.076 96.1146C199.428 96.1146 196.757 96.1048 195.064 96.0036C194.708 88.4878 194.729 78.3118 194.729 75.286C194.729 71.6993 194.841 63.7294 195.064 56.9081C195.62 56.8125 196.355 56.6339 197.179 56.5742ZM573.945 56.5742C574.764 56.5144 575.637 56.5671 576.507 56.5742C586.482 56.6093 590.201 58.5967 590.201 64.0366C590.201 65.4932 589.755 66.7495 588.865 67.8236C586.95 70.1 583.12 71.2859 578.399 71.0539H578.176L575.393 78.2942H578.288C583.766 78.1374 588.419 79.8703 590.869 82.8609C592.026 84.2465 592.65 85.8402 592.65 87.5387C592.65 93.2499 587.64 96.1146 577.843 96.1146C576.15 96.1146 573.523 96.1048 571.83 96.0036C571.474 88.4878 571.384 78.3118 571.384 75.286C571.384 71.6951 571.562 63.7062 571.83 56.9081C572.364 56.8125 573.127 56.6339 573.945 56.5742ZM315.642 57.0199C322.322 56.899 326.954 58.2494 329.225 61.0291C330.249 62.3079 330.784 63.8812 330.784 65.7069C330.784 73.1433 322.522 74.7293 315.53 74.7293L312.636 74.6182C312.636 74.6182 311.968 74.4537 311.522 74.3953C311.478 72.6842 311.522 70.488 311.522 67.9361C311.522 64.6615 311.5 60.9363 311.634 57.3538C312.48 57.1886 314.083 57.0557 315.642 57.0199ZM388.791 57.0199C395.471 56.899 400.214 58.2494 402.485 61.0291C403.509 62.3079 404.043 63.8812 404.043 65.7069C404.043 73.1433 395.782 74.7293 388.791 74.7293L385.896 74.6182C385.896 74.6182 385.183 74.4537 384.782 74.3953C384.738 72.6842 384.671 70.4922 384.671 67.9361C384.671 64.6615 384.761 60.9363 384.893 57.3538C385.785 57.1886 387.276 57.0557 388.791 57.0199ZM439.894 65.9305C441.053 68.3453 444.014 75.2101 447.355 83.3059C446.865 83.32 446.241 83.3059 446.241 83.3059L439.894 83.417C439.894 83.417 433.46 83.3375 432.435 83.3059C435.107 76.7834 437.623 70.9155 439.894 65.9305ZM635.069 65.9305C636.227 68.3544 639.188 75.215 642.529 83.3059C641.994 83.3151 641.415 83.3059 641.415 83.3059L635.069 83.417C635.069 83.417 628.634 83.3143 627.61 83.3059C630.282 76.7919 632.799 70.9288 635.069 65.9305Z" fill="#CBD5E1"/>
<path d="M0 151.875H151.82V0H0V151.875Z" fill="#CBD5E1"/>
<path d="M86.1746 16.8809C90.3172 18.6004 107.018 27.7338 109.111 30.5803C100.248 31.7564 83.3693 36.7689 74.8186 41.273C84.616 39.1253 98.2665 37.9808 107.663 37.4859C104.011 42.8857 102.007 45.6478 96.0838 52.0768C106.237 45.9775 109.066 45.5543 118.463 40.0477C121.981 45.2872 122.894 57.4013 123.027 67.0023C126.1 60.903 129.819 37.9759 128.26 33.8106C133.916 30.1044 133.916 28.6337 135.386 26.1254C129.685 26.6336 126.479 26.7264 123.362 27.6846C115.524 22.8641 99.3571 17.9051 86.1746 16.8809ZM63.908 45.9515C61.3698 46.3262 54.1992 49.5424 49.434 53.3028C49.434 53.3028 46.2717 52.9155 40.9717 53.08C35.6725 53.312 28.7246 54.6484 26.0528 55.7528C31.2193 55.9932 38.2557 57.2853 40.9717 59.9856C40.9717 59.9856 33.0892 67.0915 25.3845 82.5963C25.3845 82.5963 39.5466 69.3995 45.6477 66.1115C45.6477 66.1115 48.7657 76.8401 50.9919 82.1506C50.9919 82.1506 52.9736 69.7784 56.2244 62.6584C56.2244 62.6584 57.1373 62.0925 61.6804 61.6559C66.1778 61.2552 72.5249 60.9656 84.727 63.1041C84.727 63.1041 73.527 55.989 59.6762 54.0824C60.211 52.1843 62.1709 48.1118 63.908 45.9515ZM24.0487 88.053C23.1576 95.6764 22.8681 101.232 23.9376 107.322C20.4641 108.267 17.9919 109.06 15.1416 110.329C19.1493 112.793 22.4457 114.731 26.9432 116.789C29.3037 121.922 31.7309 125.329 35.7392 129.264C34.8039 125.909 34.6036 123.217 34.9599 119.685C39.9928 121.151 44.179 121.953 49.8788 122.135C44.446 120.13 40.5712 117.778 36.2958 113.782C37.5874 110.28 39.0575 107.477 41.4173 103.98C37.0533 104.605 33.8468 105.135 30.0612 105.873C26.9882 100.479 25.6073 95.2532 24.0487 88.053ZM90.6285 111.778C86.7987 114.473 83.4586 116.575 79.049 118.683C78.8269 116.616 78.6927 114.874 78.6035 112.557C76.1095 115.872 74.0168 118.416 71.255 121.468C66.5791 122.742 62.8828 123.232 58.3403 123.25C61.1013 124.689 63.9073 125.562 66.8019 126.145C63.9073 128.796 61.3691 130.694 58.5624 132.494C63.3276 131.363 69.5179 129.313 74.1503 126.592C76.555 126.671 78.9597 126.564 80.6069 126.256C80.2064 124.822 79.8944 123.749 79.4938 121.913C83.9041 118.514 87.0214 115.462 90.6285 111.778Z" fill="white"/>
</g>
<defs>
<clipPath id="clip0_2653_178">
<rect width="710" height="152" fill="white"/>
</clipPath>
</defs>
</svg>
