<svg xmlns="http://www.w3.org/2000/svg" width="2500" height="2500" viewBox="0 0 192.756 192.756"><g fill-rule="evenodd" clip-rule="evenodd" fill="#CBD5E1"><path fill="none" d="M0 0h192.756v192.756H0V0z"/><path d="M107.662 63.794l-6.844 33.054h9.465l3.932-19.075 1.019 19.075h6.989l9.173-18.784-3.931 18.784h9.318l6.699-33.054h-13.105l-8.881 18.493-1.019-18.493h-12.815zM146.832 63.794L142.9 83.597c-2.039 10.047 3.932 14.124 13.104 14.124 9.756 0 14.561-3.64 16.6-13.396l4.223-20.531h-9.902l-4.076 19.512c-.873 4.222-3.494 5.387-6.115 5.387-2.33 0-4.951-1.456-4.076-5.242l3.93-19.657h-9.756zM111.594 126.697c.875.145 1.748.145 2.621.436.438.146 1.02.438 1.457.293h.727c.146 0 .146.145.291.145-.145 0 0 .146-.145.291l-.146.146c-.145.145 0 .291 0 .291-.436 0-.727.438-1.164.291 0 .291-.291.146-.438.291-.727.291-1.311-.291-2.037-.291-.438-.438-1.311-.146-1.895-.582-.873.145-1.746.145-2.766 0-.438.582-1.164.729-1.893.873-.291-.291-.729-.291-1.02-.438-.582-.436-1.457-.145-2.184-.291a1.12 1.12 0 0 0-.729-.291c.582-1.164 2.184-1.602 3.35-1.164.291.145.727.145 1.164 0 .438-.291 1.02-.291 1.455-.438 1.168-.29 2.188.438 3.352.438z"/><path d="M21.463 78.792c.582-.583 1.165-.874 1.747-1.311.291-.291.582-.437.874-.583 0-.146.146-.146.146 0 .292.146.292.583.437.874 0 .146.146.291.146.146.437-.437 1.02-.437 1.602-.291.146 0 .146.437.437.582.292-.291.583 0 .874.146.437.146.437.728.728.874.146.146.583 0 .728.146.292.146.437.437.729.582.437.146.437.583.728.729.146.146.437 0 .437 0 .291.291 0 .874.291 1.165.437.728 1.456.874 1.893 1.602.146.146 0 .291.146.291.146.291.437.291.583.437.437.292.437.874.583 1.02.437.582.583 1.165 1.019 1.602.146.146.583 0 .874 0l.292.291c1.31-.437 2.33-1.311 3.495-1.893 0-.583 0-1.165.291-1.747-.728-1.02-.583-2.621.146-3.641.728 0 1.456-.146 2.039.292.145.146.291 0 .291.146.728.583 1.602.874 1.893 1.748.146.291 0 .582.146 1.019.292.874-.291 1.893-.582 2.766-1.165.729-2.476 1.311-3.786 1.894-.437.146-1.02-.146-1.311.146-.291.146-.291.146-.437.437-.291.437-.437.728-.728 1.02.437.728 1.456.873 1.602 1.747 0 .437-.146.874-.291 1.311-.146.146 0 .146 0 .146 1.602-1.02 2.475-2.912 4.077-3.64.583 0 1.311-.146 1.893 0 .292.146.874.292 1.019-.146 0-.146.146-.583-.146-.728-.728-.146-1.602.291-2.33.291-.146-.874.583-1.311 1.165-1.747.146-.146.437-.292.583-.437.874-.437 1.893-.729 2.621-1.311 1.456-.292 2.621-1.02 3.932-1.311 0 .437-.146 1.019-.437 1.311 0 .146.146.291.146.291.728 0 1.602-.437 2.184.146.437.291-.146.874.146 1.311.292.437.874.582 1.311.728.292.291 1.02.728.583 1.31.437.292.728.583 1.165.874.437.146.437.583.728.874.291.291.437.583.874.874.146 0 .291 0 .437.291 0 .146.291.292.145.437 0 .146-.145.292 0 .292 0 .146.146.291.292.291.145.146.437-.146.582-.146.583-.146 1.02-.146 1.602-.146.874-1.02 2.476-.729 3.786-1.165 1.602-1.456 1.747-3.786 2.184-5.824a2.022 2.022 0 0 1-.291-1.602c.146-.583.874-.728 1.456-.874.728-.146 1.311-.146 2.039-.291 1.165-.146 2.33-.146 3.349.291.728.292 1.311.583 1.893 1.02.146 1.311-1.311.437-2.038.583-.292.437-.437 1.019-.729 1.311-.291.437-.437.874-.728 1.019-.583.437-.728 1.165-1.02 1.747-.146.146-.291.583-.437.874-.145 0 0 .146 0 .146-.145.291-.582.291-.728.437-1.019.874-1.747 1.893-2.912 2.621-.582.291-1.165.291-1.893.291 0 .146-.146.292-.146.292-.583.146-.874.146-1.165.583.582.291.874.728 1.311 1.165.146.146.146.437.291.582.291.292.146.583.146 1.019.146.146.146.146.291.146.874-.438 1.602-1.02 2.476-1.166 1.02-.291 1.893.728 2.185 1.748.145.145.145.438.291.729.146.145 0 .291.146.436.146.146.146.291.146.438.292.729.292 1.457.583 2.33.146.582 0 1.311.291 2.039 1.602 0 2.913.582 4.514.727.728-.873 1.893-.727 3.058-1.02h1.02c.582.146 1.165-.145 1.747 0 .291.293 1.02.146 1.165.584.146.291.146.873-.145 1.164-.146.146 0 .291-.146.438-.291.291-.728.436-1.019.727.146.584.874.729 1.165 1.166-.292.145 0 .582-.146.729-.291.291-.874.436-.874.873 0 .291 0 .582.437.729-.291 0-.291.291-.146.436 0 .146.292.438.437.584.146.145 0 .291.146.291.291.727 1.019 1.311.583 2.037-.146.146-.583.146-.874.146-.874.145-1.893-.146-2.622-.582-.873-.438-1.893-.438-2.621-1.311-.437 0-.728-.438-1.165-.146-1.02.438-2.039.582-2.912 1.166-.292.291-.729.291-1.02.436-.583.291-1.165.291-1.747.291-1.02.146-2.039-.145-2.913.146-.145 0-.437 0-.437.145.146.584.437 1.02.728 1.457 0 .145.146.145.146.291.146.146 0 .291.146.438.292.436.583 1.164.729 1.746 0 .584.728.291 1.165.584.146.145-.291.436-.146.727 0 0-.146.146-.292.146s-.291.291-.291.438c.291.436.874.291 1.165.582.291.436.146.727 0 1.164.728 1.164 1.747 2.184 2.184 3.494 1.165-.873 1.893-2.184 2.767-3.494.145-.291.437-.582.728-.729 2.621-1.311 4.514-3.348 6.844-5.242.728-.582 1.456-1.018 2.329-1.602-.291-1.746-1.019-3.348-.728-5.387.146-.291.146-.582 0-1.02 0-.145.146-.582.146-.873 0-1.311-.583-2.475-.729-3.785.874-.291 1.602-.146 2.476 0 .437 0 .728.145 1.165.145l.146-.145c-.292 0-.146-.291-.292-.438-.582 0-1.165-.146-1.747-.291-1.019-.291-2.039-.146-2.912.145-.583.146-1.019.584-1.602.438-.728-.291-1.311-.438-2.038-.729-.437-.873-.291-1.893-.583-2.912 0-.582-.292-1.02-.292-1.455.292.145.583-.146.729-.146.437-.291.728-.145 1.019-.437.146 0 0-.146 0-.291l-.291-.292s0-.146.145-.146c1.02-.583 2.039.291 3.059-.291-.437-.437-1.165-.583-1.748-.729-.146-.582.292-1.165.874-1.165a23.365 23.365 0 0 0 2.912-1.019c.437-.146 1.02-.146 1.602-.292.437 0 .583-.292 1.02-.437 0 .582-.291 1.165-.583 1.601 0 .146.146.146.292.146.873-.437 1.747-.583 2.621-.292h.437c.291.292.437.729.728.874.146.146 0 .582-.146.874.874.292 1.893-.292 2.476.437.437.291.291.874-.146 1.311v.291c-.146.145-.291.145-.291.291 0 .145.145.145.291.291 1.165.291 2.766.582 2.766 2.039.438.291.873.436 1.166.727.145.146-.146.438-.146.584.146.582.873.436 1.164.873.146.438.584.729.438 1.164-.146.291-.582.729-1.02.729-.873.146-1.893 0-2.912.438 0 .873-.437 2.184.728 2.475.146 1.02-1.165 1.311-1.893 1.748.291.291.728.436.874.729 1.019-.146 1.748-.438 2.768-.729.873-.146 1.746 0 2.619-.438-1.164-.438-1.602-1.748-1.455-3.059-.291-.145-.291-.436-.291-.727.145-.291.436-.438.582-.291.146.145.438.145.582 0 2.621-.584 5.242-.729 7.572-2.039 2.33-.291 4.66-.291 6.697.873.291-.291.729-.291 1.02-.436.873-.584 2.039-.584 3.059-.146 1.164.438 2.475.291 3.639 1.02h.146c.729.582 1.602.873 2.33 1.455.291 0 .582.291.873.438.146.146.146.291 0 .291-.291.582-1.02.582-1.455.873 0 .146.145.146.291.293.582.145 1.164.582 1.02 1.164 0 .146-.293.438-.293.438.293.873-.291 1.164-.873 1.455.291.146.146.582.438.729.145.145.436-.146.582-.146 1.311-.291 2.621.146 3.641.729.873.438 1.455 1.457 1.455 2.475.291.293.584.438.875.584.873.291 1.455 1.164 2.475 1.311-.146.145 0 .291 0 .291.729-.291 1.455 0 2.039-.146.727-.291 1.311-.291 2.037-.438 1.166-.291 2.33 0 3.35.146 0 .582.438 1.02.873 1.457v.291c-.145.291-.436.145-.436.291-.438-.146-.582.291-1.02.291-1.748-.146-3.494-.873-5.242-.291.291.145.582.145.873.291.438.291 0 .873-.291 1.02-.145.291-.436.291-.729.436-.145.146-.291 0-.436.146-.146.146-.146.146-.291.438-.438.436-.729 1.018-.875 1.746-.145.582.146 1.311.438 1.748.146.145 0 .291.146.291 1.311 2.039 3.348 3.641 5.678 3.203.582-.145.873-.582 1.166-1.02.291-.436.145-1.02.291-1.602 0-.729-.146-1.311-.291-2.039-.146-.582-.438-1.018-.875-1.602-.436-.582-1.455-.727-1.893-1.311-.291-.145-.291-.582-.291-.873 1.02-.145 1.893.438 2.766 1.02 1.311.729 2.039 1.893 2.621 3.35.438.873.438 1.893.291 2.766-.145.729-.582 1.166-1.018 1.748 0 0 0 .145-.146.145s-.582.146-.582.146c-.146.145 0 .145-.146.145l.729-.145s.146.145.291.145c.438-.436.873 0 1.311.291.291-.582.873-.873 1.457-1.018.145 0 .436 0 .727.145.584.146 1.311.146 1.895-.291 1.309 0 2.766.146 3.93.729.146.145-.145.436-.145.729 0-.146-.146 0-.146.145-.145 0 0 .146 0 .146-.291 0-.436.291-.582.145-.291-.145-.729-.291-1.02-.145-1.311.145-2.33-.146-3.639.145-.875.146-1.748.438-2.768.582-.291-.291-.873-.145-1.164-.727-1.166-.146-2.186 0-3.203 0-.438 0-1.02 0-1.457-.291-.438-.293-.873-.293-1.457-.584-.145-.145-.582-.291-.873-.436-1.748-.875-3.35-2.33-3.932-4.223a2.846 2.846 0 0 1 0-2.186c0-.291.146-.727.291-1.018.584-.875 1.166-1.602 2.039-2.039-.438-.146-.729-.146-1.02-.291-1.02-.438-1.746-1.311-2.912-1.166-.727.146-1.164.729-2.037.729-1.457-1.02-3.205-1.893-4.951-2.766-.438-.291-.875-.875-1.457-1.02-.291-.146-.436.436-.727.436-.584.293-1.166.293-1.604.146-.436-.146-.436-.729-.727-1.164a.801.801 0 0 0-.438-.729c-.291.729-.146 1.455-.291 2.039.582.436 1.164.727 1.893.873.729.291 1.166.729 1.457 1.311.145.145.291.436.291.582.145.438.582.582.727.873.729 1.311 1.02 2.621 2.186 3.641.873.729 2.037 0 3.203.146 0 0-.146.145 0 .291.438.436 1.02.873 1.311 1.455.145.291-.291.146-.291.291-.438-.145-.875.438-1.166 0-.873 0-1.746 0-2.475.146a.313.313 0 0 1-.291-.291h-.291c-.291-.291-.438-.582-.729-.875-.146-.145-.438-.291-.582-.436-.875-.729-1.748-1.457-2.477-2.33-.727-.873-1.164-2.039-2.328-2.621-.293-.291-1.02 0-1.457-.145a8.041 8.041 0 0 1-2.912-2.477c-.145-.145-.291-.436-.145-.436.582-.584 1.164-1.02 1.455-1.748.146-.146-.146-.146-.291-.146-.438.438-.582 1.02-1.02 1.166-.729.436-1.311.873-2.039 1.164h-.436l-.438.438c0 .145.291.436.291.582 0 1.164.438 2.184 0 3.35-.436.145-.582.582-1.02.729-.145.145-.582.145-.729.291-2.184 1.164-3.785 3.057-5.531 4.805-1.02.145-1.895 1.164-2.039 2.184-.146.729-.582 1.164-1.166 1.602-.436.291-.873.291-1.311.582-.291.291-1.018.291-1.018-.145-.291-1.602.436-3.35 2.037-3.787 1.748-1.746 3.496-3.203 5.242-4.949.291-.729 1.166-1.166 1.457-1.893.582-1.02 0-1.895-.146-2.914 0-.145-.145-.145-.145-.145-.291-.291-.146-.729-.291-1.02-.146-.438.145-.873-.146-1.311-.146.146-.291 0-.438.146-.873.873-1.746 1.746-2.766 2.475h-.291c-.582.438-1.311.729-1.893.873-1.02.729-2.477.584-3.641.875-.874.145-1.602 0-2.33 0-.437 1.02-.146 2.037-.437 3.057 0 .582-.291 1.166-.291 1.748 0 0 .146.145.291.145.291-.145.437-.436.728-.582 1.457-.291 2.912-.291 4.369-.729 0-.582 0-1.164.291-1.455s.582.146 1.02.291c0 .146.145 0 .145.146.582.291 1.02.582 1.311 1.018v.293c-.291.291-.438.582-.873.727-.582.438-1.311.438-2.039.582-.291 0-.582.293-1.02.438-1.02.291-2.184.438-3.203.146-.291.291-.583.727-.874.873-.582.146-1.311-.146-1.748-.582 0 0 0 .145-.145 0 0 0-.146-.146-.146-.291-.437-.291-.291-.729-.437-1.02-.291-1.311-.146-2.475-.291-3.641 0-.145-.146-.145-.146-.291-.146.146-.146.291-.291.291-1.165 0-2.039-.582-2.767-1.455-.437.145-.583-.293-.874-.146-1.456.729-2.912 1.602-4.368 2.039-.582.873-1.456 1.455-2.33 2.037-.437.293-1.019.293-1.602.293-1.019.873-2.039 1.893-2.913 3.057-.291.438-.728 1.02-1.31 1.311-.146 0-.292.291-.292.438-.291.729-.291 1.455-.873 2.037-.874-.145-2.476.438-2.767-.727.729-.875 1.602-1.602 2.33-2.477-.728-.436-1.602.146-2.33-.291-.728-.582-1.165-1.311-1.747-1.893-.437-.438-1.02-.582-1.311-1.02-.146 0-.291-.291-.291-.291-1.748-.145-3.349.146-4.951-.291-.437-.146-.874-.438-1.02-.873-.146-.729-.437-1.457-.582-2.186-.146-.145-.146-.291-.292-.436v-.438c-.291-.582-.437-1.311-.583-2.039l-.437-1.311c-.146-.145 0-.291-.146-.436a1.988 1.988 0 0 0-.437-.582h-.291c-1.602-1.166-3.349-2.039-3.64-4.078-.146-1.164.146-2.33-.292-3.494-.292-.291-.292-.729-.583-1.164-1.019-1.166-1.602-2.477-2.33-3.787-.437-.873-.291-2.039-.728-2.912-.583-1.019-1.602-1.893-2.476-2.766-.728.291-1.456-.146-2.184.291-1.019.583-2.039 1.165-3.203 1.02-.728.874-1.456 1.747-2.621 2.329-.583.293-1.019-.436-1.311-.873-.291-.291-.437-.582-.437-1.019 0-.291-.582-.146-.728-.437l-.291.291c.291 1.311.437 2.622.874 3.786 1.019-.438 1.893-1.164 3.058-1.748a.445.445 0 0 1 .583 0c.728 1.02 1.747 1.895 2.621 2.914.291-1.166.437-2.33.728-3.496 1.165-.291 2.476.146 3.058 1.311v.438c.729.873 1.602 1.893 1.165 2.912.874 1.02 2.039 1.602 2.912 2.766 0 .146-.146.291-.146.291 0 .438.291.584.437.875.146.145 0 .436.146.729 0 .145.146.145.146.291 0 .727.437 1.455-.291 1.893-.292.145-.874-.146-1.311.145-.437.146-.874-.145-1.456-.291-.292-.145-.728.146-1.019.291-2.039.146-4.077-.291-6.116-.436a6.022 6.022 0 0 1-2.33-.438c-.292-.145-.583-.145-.874-.291-.146-.146-.291 0-.437-.146-1.02-.582-2.33-.727-3.058-1.746-.437 0-.874-.438-1.165-.582-.874-.584-1.602-1.311-2.476-2.039-.582.438-1.31.729-2.038 1.311-.146.145-.437.145-.729 0-.437-.291-.728-.438-1.165-.729-.146 0-.291-.291-.291-.291-.583-.146-1.02-.729-1.602-.729-.291-.145-.874-.582-1.02 0-.145.875-.145 1.893.292 2.768.582 0 1.31-.146 1.893.436v.291c.437.584 1.165.729 1.165 1.457-.583.438-1.311.438-1.893.146 0 .291-.292.145-.437.145-.583-.145-1.02-.438-1.456-.873-.146 0-.291-.291-.437-.146-.146.146-.437.291-.583.291-.728 0-1.311.291-1.893.291-.583-.582-1.02-1.311-1.165-2.184a1.112 1.112 0 0 1-.292-.729c-.146-.291-.291-.436-.291-.727s-.146-.438-.146-.584c-.146-.145-.146-.291-.146-.436-.146-.582-.583-1.311-.729-1.893l-.291-.291v-.293c-.437-.436-.728-.873-.583-1.455.292-.438.874-1.02 1.456-.729 1.165.438 2.184 1.02 3.349 1.457.146-.146.437-.146.437-.146 1.311-.291 2.476.291 3.641.291.146-.145.291.291.582.438 1.02.145 2.039-.146 3.204-.146.146.146.291-.291.146-.291-1.019-.582-2.475-.291-3.64-.582-.291.291-.583.146-.874.146-.291-.146-.582-.146-.582-.584-.292-1.455-.729-2.912-1.02-4.368-.291-2.184-.146-4.223-.291-6.261 0-.437 0-1.02-.291-1.457-.874 1.165-1.893 2.039-3.203 2.621-.583.583-1.311 1.019-1.748 1.747-.292.583-.437 1.165-.874 1.457-.292.291-.729.291-1.02.437-.146.146-.291.146-.437 0-.437-.291-.728-.874-1.165-1.165-.437-.146-1.02.145-1.311-.146-.437-.437-.291-.874 0-1.311.291-.582 1.019-1.019 1.893-.728.292-.146.729-.437.583-.874-.146-.437-.728 0-.874-.291-.146.146-.291.146-.437.146-.874-.583-.291-1.456.291-2.038v-.146c.292-.437.437-.874.728-1.165.146-.146 0-.146.146-.292.146-.437.437-.728.728-1.165.437-.292.728 0 1.165-.146.583.874 1.456.146 2.038-.291-.582-.437-1.31 0-1.893-.146-.583 0-.874-.582-.874-1.019-.142-1.318.877-2.046 1.751-2.92zm17.473.728c0-.146-.146-.146 0-.291-.728 0-1.311 0-2.039-.146-.874 0-1.747.146-2.621-.291-.874-.291-1.602-1.311-2.621-.728-.146 0 0 .437.146.582.728.583 1.456 1.311 2.476 1.457.291 0 .145.291.291.437.146.437.146 1.02.437 1.457.291.437.874.874 1.456 1.019.292.146.874.728 1.165.146.146-.437.146-1.019.291-1.602.291-.729.873-1.312 1.019-2.04zm27.665 4.805c.146-.292.292-.583.146-.728-.728-1.02-1.602-1.748-2.475-2.476-.874-.146-1.748-.583-2.621-.291-.729.146-1.311-.146-1.893.146-.291.146-.146.437.146.729.437.291 1.019.437 1.602.582.291 0 .291.291.291.583.146.874.437 1.602.728 2.33.291.582 1.456.291 2.039 0 .727-.438 1.601-.292 2.037-.875zm5.388 32.325c-.291.729-.582 1.893.292 2.33 1.019-.291 2.039.145 2.912-.291.146 0 .146-.293 0-.438-.582-.582-1.31-1.02-2.038-1.602-.438-.29-1.021-.436-1.166.001zm5.678 9.319c-.291.146-.583.291-1.019 0 0 .438.437.729.437 1.311.146-.146.146 0 .292 0 .874.146 1.602-.291 2.33-.582.146-.146.291.145.583.145.291.146.582.438.873.584.437.291.874.291 1.311.291 1.748.291 3.35-.291 4.951.145.146-.145.437 0 .582-.145.437-.146.437-.584.583-1.02-.729-.146-1.311-.582-1.893-.438-.437.146-.728.146-1.02.146-1.019-.438-2.039-.146-3.058-.146-.292-.291-.728-.436-1.02-.582-1.165-.438-2.621-.729-3.932.291zm-3.348-27.082c-.146.727.146 1.164.582 1.746.146 0 .146.291.291.291.146.438.729.729 1.165.291.292.584.146 1.457 1.02 1.602.291-.291.728-.582 1.165-.873.292-.145.437.146.583.146.291-.875 0-2.039-.146-3.059-.146-.145-.437-.438-.437-.729-.291-.436-.291-1.02-.874-1.164-.437.291-.874.438-1.311.582-.728.438-1.311.874-2.038 1.167zm57.515 3.785a2.861 2.861 0 0 0-1.311-1.311c-1.893-1.311-4.078-1.748-6.115-1.748 0 .291-.146.584 0 .729.727.582 1.746.729 2.475 1.457-.438.436-.582 1.018-.873 1.602.291.582 1.02.727 1.455 1.311.875 0 2.039.145 2.768-.584.581-.437 1.163-.874 1.601-1.456zm1.455.873c-.145-.145-.291.291-.291.438 0 1.602-1.02 3.35-2.621 3.494-.873 0-1.602-.145-2.475.146-.146 0-.291 0-.438.145-.145.146-.436 0-.436 0-.146.291.145.582.436.729.438.146.875-.291 1.166-.146.145.146.436.146.436.293 1.02.291 2.186.145 2.621 1.164.146.438.291 1.164.729 1.455.145 0 .291.146.438.146.727.438 1.018 1.311 1.746 1.455.291-.291.582-.145.873-.436.584-.438 1.311-1.02 1.604-1.748a4.83 4.83 0 0 0 0-3.494c-.293-.873-1.02-1.311-1.604-2.039v-.291c-.291-.145-.582-.145-.873-.438-.582-.291-.873-.582-1.311-.873zm-109.205 0s.146.146.146.291c.146 0 0 .146.146.146 0 .145.146.291.146.291.146-.146.582 0 .437-.291-.146-.729-.291-1.311-.437-1.893s-.583-.582-1.165-.582c-.146-.146-.291 0-.146.145.291.438.291.873.582 1.311.145.146.291.291.291.582zm.291-3.785c-.292 0-.146.291-.146.582 0 .146.146.438.146.438.291-.146.437-.291.728-.438 0-.438-.436-.582-.728-.582zm32.762-7.427c.292.146.728.437.874.728.146.437.292.728.437 1.165.146-.145.437-.291.292-.437l-.437-.437c0-.437-.146-.874-.292-1.165-.146-.292-.582-.437-.874-.729-.146-.291-.146-.582-.291-.582-.292-.146-.583-.437-.874-.292-.146 0-.146.146-.146.292s.146.146.291.291v.291c.146.438.437.73 1.02.875zm-2.184-2.038c.146.146.291 0 .291-.146-.146-.873-.874-1.31-1.602-1.602-.146-.146-.437 0-.437 0 .146.437.437.729.874 1.02.291.291.583.437.874.728zm14.269 13.541c.583-.145 1.165.291 1.748 0-.874-1.311-1.602-2.328-2.33-3.639 0-.293-.292-.584-.437-.584-.437 0-.728.438-.874.729-.292.582-.729 1.02-1.165 1.602.582.291.874.438 1.311.873.146.146.437.293.728.293.146.145.146.291.437.291.145 0 .145.291.437.291 0 .144.145.144.145.144zm-4.805 3.932c.437 0 .583.291 1.02.438 0 0 .146-.146.146-.291-.292-.438-.874-.729-1.456-.875-.146 0-.437-.291-.437-.145-.291.145-.437.582-.437.873l.146.146c.436-.291.727 0 1.018-.146zm1.165 8.882c-.583-.582-1.019-1.311-1.602-1.893-.437.727-.291 1.455-.437 2.184.583.729 1.165 1.02 1.893 1.602 0 0 0 .146.146.146.437.145.874-.146 1.311-.146.146 0 .291 0 .146-.146-.438-.727-1.02-1.165-1.457-1.747zm23.297-19.802c1.165.436 1.893 1.311 2.767 2.184.291-.438.291-.873-.146-1.02-.146-.145-.292 0-.292-.145-.874-.584-1.602-1.311-2.33-2.039v-.292c-.291-.437-1.02-.146-1.602-.146l-.146.146 1.02 1.02c.147.145.438.145.729.292zm1.456 13.687c.291-.146.582-.291.874-.584-.874-.291-1.748.438-2.184 1.166-.292.582-.292 1.311.146 1.893.146-.146.146-.438.437-.582-.438-.729.29-1.457.727-1.893zm2.33 5.24c0-.145-.292-.145-.292-.291-.437.291-.728.729-.437 1.166 0 .145-.146.582 0 .582 0 0 0 .146 0 0l.146-.291c.146-.437.438-.582.583-1.166zm12.96-8.007c.436.146.727.146 1.164.291 1.311.291 2.475-.145 3.785.146 1.602.438 3.203.438 4.805 1.02.875.145 1.748-.291 2.621-.146 1.166.291 2.039.582 3.205.729.145 0 .145 0 .145-.146-.291-1.018-.145-2.037-.291-2.912 0-.145-.291-.436-.438-.436-1.311-.146-2.33-1.02-3.348-1.748-.146-.146-.584-.146-.438 0 .291.729 1.02 1.311 1.602 2.039.146.145.291.436.291.729 0 .145.146.145.291.291 0 .291 0 .727-.291.873-.145 0-.291-.146-.291-.146-1.02.293-1.893-.436-2.912-.145h-.729c-.873-.291-1.893-.582-2.766-1.166-1.602.146-3.059.584-4.66 0 0-.145-.145 0-.291 0-.582.146-1.164 0-1.746-.145-.875-.146-1.895-.146-2.768.291 1.021.436 2.04.29 3.06.581zm-75.571-23.88l.583.583.437.292.874.874.146.145c.292.583.292 1.165.874 1.311l.291-.291s.146 0 .146-.146c0-.582-.583-1.019-1.165-1.019l-.437-.583-.146-.146-.583-.583h-.437l-.146-.583c.146-.291 0-.583-.291-.583-.291-.146-.874 0-1.165-.583 0-.291-.146-.582-.437-.873-.146.291-.583 0-.437.291.146.582.292 1.165.874 1.456.291.147.728.293 1.019.438z"/><path d="M29.909 105.146c.291.438 1.456.438 1.893 1.893.291.584.291 1.166.291 1.748H42.43c-2.767-1.164-3.931-1.893-6.261-3.641h-6.26zM8.504 105.146h13.25c.146.291.437 1.02.583 1.457.291.582.728.873 1.019 1.602 0 .145.583.582.437.582H8.504v-3.641zM184.252 105.146v3.641h-45.283c.436-1.455-1.311-2.33-1.748-3.641h47.031zM74.319 82.578c.146 0 .728.146 1.456.729.291.146.874.437 1.019.728.437.583.146.146.583.583.437.728.582 2.621 0 3.495-.728 1.165-2.185 1.456-2.912 2.621-.437.728-1.02 1.311-1.165 2.184-.437 2.039.874 3.932 1.165 3.786.728-.291 2.038-1.165 2.912-1.456 1.019-.437 1.311-1.165 2.912-1.747l1.31-6.698h7.863c6.553 0 11.794-3.64 13.396-9.464 1.457-5.533-.729-13.542-10.047-13.542h-16.6l-3.786 18.492c0-.002 1.311.143 1.894.289zm10.046-10.921h5.825c2.038 0 2.912 1.602 2.621 3.495-.291 1.747-1.893 3.349-3.786 3.349H82.91l1.455-6.844z"/></g></svg>