<svg width="132" height="40" viewBox="0 0 132 40" fill="none" xmlns="http://www.w3.org/2000/svg">
<g clip-path="url(#clip0_11_5)">
<path d="M12.345 15.979C11.1397 15.9898 9.95731 16.3092 8.91061 16.9069C7.8639 17.5046 6.98783 18.3605 6.36599 19.393V8.25903C6.36599 7.78203 6.49499 6.65902 5.52499 7.11302C4.55499 7.56702 1.71504 9.10102 0.476037 9.61302C-0.212963 9.89702 -0.097963 10.465 0.476037 10.465C1.05004 10.465 1.91103 10.635 1.91103 11.265V32.805C2.73435 32.1288 3.75723 31.7423 4.82198 31.705C5.65342 31.7454 6.47216 31.9252 7.24398 32.237C8.57529 32.7123 9.97471 32.9693 11.388 32.998C16.022 32.998 19.459 29.298 19.459 23.674C19.46 19.189 16.584 15.979 12.345 15.979ZM10.53 31.733C7.64099 31.733 6.27798 28.488 6.27798 24.49C6.27798 20.99 7.94199 18.305 10.353 18.305C13.083 18.305 14.759 21.034 14.759 24.624C14.759 28.778 13.038 31.732 10.53 31.732V31.733Z" fill="#CBD5E1"/>
<path d="M37.004 24.28C37.004 18.714 34.528 15.798 29.612 15.798C24.666 15.798 21.312 19.428 21.312 24.289C21.312 29.533 24.719 33 29.904 33C33.167 33 35.904 31.369 36.847 29.309C37.112 28.745 36.547 28.487 36.247 28.684C34.9341 29.6002 33.3849 30.1185 31.785 30.177C28.885 30.177 26.669 28.857 26.132 25.435H35.992C36.2699 25.3928 36.5238 25.2538 36.709 25.0424C36.8942 24.831 36.9987 24.561 37.004 24.28ZM32.246 24.203H26.046L26.026 24.284C26.018 24.1 26.012 23.914 26.012 23.721C26.012 19.03 27.304 17.281 29.176 17.281C31.241 17.281 32.247 19.921 32.247 23.165L32.246 24.203Z" fill="#CBD5E1"/>
<path d="M45.941 31.841C44.793 31.313 44.522 31.179 44.522 29.223V8.258C44.522 7.785 44.657 6.65001 43.682 7.10401C42.707 7.55801 39.872 9.09101 38.632 9.60401C37.943 9.88801 38.058 10.456 38.632 10.456C39.206 10.456 40.067 10.626 40.067 11.25V29.224C40.067 31.18 39.797 31.313 38.648 31.842C38.054 32.116 38.176 32.529 38.511 32.613H46.078C46.414 32.528 46.536 32.115 45.941 31.841Z" fill="#CBD5E1"/>
<path d="M55.5991 31.841C54.4501 31.313 54.1801 31.179 54.1801 29.223V8.258H54.1691C54.1691 7.785 54.304 6.65001 53.329 7.10401C52.354 7.55801 49.5191 9.09101 48.2791 9.60401C47.5911 9.88801 47.7051 10.456 48.2791 10.456C48.8531 10.456 49.714 10.626 49.714 11.25H49.7211V29.229C49.7211 31.185 49.4501 31.318 48.3021 31.847C47.7081 32.121 47.829 32.534 48.165 32.618H55.7321C56.0711 32.528 56.1931 32.115 55.5991 31.841Z" fill="#CBD5E1"/>
<path d="M86.116 31.829C84.967 31.295 84.697 31.16 84.697 29.183V21.029C84.697 17.77 82.8701 15.81 79.7451 15.81C78.627 15.891 77.5424 16.228 76.5754 16.795C75.6083 17.362 74.7847 18.1438 74.168 19.08C74.095 19.18 74.0421 19.264 74.0181 19.302C73.7832 18.243 73.1718 17.3053 72.2976 16.663C71.4234 16.0208 70.3458 15.7177 69.265 15.81C68.1469 15.891 67.0624 16.228 66.0954 16.795C65.1283 17.362 64.3047 18.1438 63.688 19.08V16.764C63.694 16.236 63.6371 15.541 62.8411 15.916C61.8661 16.375 59.031 17.924 57.791 18.441C57.103 18.728 57.217 19.301 57.791 19.301C58.365 19.301 59.2261 19.474 59.2261 20.101L59.233 20.096V29.184C59.233 31.161 58.962 31.296 57.814 31.83C57.22 32.107 57.3411 32.524 57.6771 32.609H65.244C65.579 32.524 65.7011 32.109 65.1071 31.83C63.9581 31.296 63.688 31.161 63.688 29.184V21.284C63.7972 20.5465 64.1572 19.8691 64.7075 19.366C65.2578 18.8629 65.9647 18.5648 66.709 18.522C68.863 18.522 69.714 20.122 69.762 22.908V29.179C69.762 31.156 69.491 31.291 68.342 31.825C67.748 32.102 67.87 32.519 68.205 32.604H75.7731C76.1081 32.519 76.23 32.104 75.636 31.825C74.487 31.291 74.217 31.156 74.217 29.179V21.029C74.217 20.994 74.217 20.96 74.217 20.929C74.4064 20.2721 74.7934 19.6893 75.3255 19.26C75.8576 18.8306 76.5089 18.5754 77.191 18.529C79.345 18.529 80.196 20.129 80.244 22.915V29.186C80.244 31.163 79.9741 31.298 78.8251 31.832C78.2311 32.109 78.353 32.526 78.688 32.611H86.2551C86.5881 32.529 86.71 32.11 86.116 31.829Z" fill="#CBD5E1"/>
<path d="M103.731 31.588C103.576 31.638 103.413 31.6568 103.251 31.6433C103.089 31.6298 102.931 31.5842 102.787 31.5092C102.642 31.4343 102.514 31.3314 102.41 31.2065C102.306 31.0817 102.227 30.9374 102.179 30.782C102.112 30.4833 102.081 30.178 102.084 29.872V21.805C102.084 18.837 101.021 15.805 95.84 15.805C94.5825 15.8112 93.3438 16.1101 92.2218 16.678C91.0999 17.2459 90.1255 18.0673 89.376 19.077C89.076 19.485 89.421 20.101 90.061 19.756C91.31 18.9371 92.738 18.4315 94.224 18.282C96.455 18.282 97.678 19.549 97.678 21.801V28.729C97.5053 29.2634 97.1702 29.7307 96.7194 30.0657C96.2686 30.4007 95.7245 30.5867 95.163 30.598C94.7625 30.6197 94.362 30.5572 93.9872 30.4143C93.6125 30.2715 93.2719 30.0516 92.9875 29.7688C92.7031 29.486 92.4813 29.1467 92.3363 28.7727C92.1914 28.3988 92.1265 27.9986 92.146 27.598C92.146 25.387 94.495 23.473 97.678 23.14V22.14C91.262 22.548 87.746 24.426 87.746 28.457C87.746 30.797 89.581 32.992 92.782 32.992C94.503 32.992 96.937 31.901 97.708 30.315C97.864 32.027 98.735 32.992 100.891 32.992C101.983 33.0056 103.062 32.7526 104.035 32.255C104.218 32.155 104.354 32.049 104.354 31.831C104.353 31.664 104.143 31.535 103.731 31.588Z" fill="#CBD5E1"/>
<path d="M124.229 31.829C123.08 31.295 122.81 31.16 122.81 29.183V21.029C122.81 17.77 120.983 15.81 117.859 15.81C116.668 15.887 115.507 16.2184 114.455 16.782C113.402 17.3455 112.483 18.1281 111.759 19.077V16.777C111.766 16.247 111.718 15.532 110.913 15.911C109.937 16.37 107.103 17.919 105.863 18.436C105.175 18.723 105.289 19.296 105.863 19.296C106.437 19.296 107.298 19.469 107.298 20.096L107.305 20.091V29.179C107.305 31.156 107.034 31.291 105.886 31.825C105.292 32.102 105.413 32.519 105.749 32.604H113.316C113.651 32.519 113.773 32.104 113.179 31.825C112.03 31.291 111.76 31.156 111.76 29.179V21.269C111.916 20.524 112.313 19.8514 112.891 19.3559C113.469 18.8603 114.194 18.5696 114.954 18.529C117.121 18.529 118.302 20.147 118.354 22.964V29.187C118.354 31.164 118.083 31.299 116.934 31.833C116.34 32.11 116.462 32.527 116.797 32.612H124.365C124.701 32.529 124.821 32.11 124.229 31.829Z" fill="#CBD5E1"/>
<path d="M129.515 28.022C129.023 28.022 128.543 28.1678 128.134 28.4408C127.726 28.7139 127.407 29.102 127.219 29.5561C127.031 30.0101 126.982 30.5098 127.078 30.9918C127.174 31.4739 127.41 31.9167 127.758 32.2642C128.105 32.6117 128.548 32.8484 129.03 32.9443C129.512 33.0402 130.012 32.991 130.466 32.8029C130.92 32.6148 131.308 32.2963 131.581 31.8876C131.854 31.479 132 30.9985 132 30.507C132 29.848 131.738 29.2159 131.272 28.7499C130.806 28.2838 130.174 28.022 129.515 28.022Z" fill="#CBD5E1"/>
</g>
<defs>
<clipPath id="clip0_11_5">
<rect width="132" height="40" fill="#CBD5E1"/>
</clipPath>
</defs>
</svg>
